<?xml version="1.0" encoding="UTF-8"?>
<svg width="47px" height="42px" viewBox="0 0 47 42" version="1.1" xmlns="http://www.w3.org/2000/svg" xmlns:xlink="http://www.w3.org/1999/xlink">
    <defs>
        <linearGradient x1="50%" y1="0%" x2="50%" y2="100%" id="linearGradient-1">
            <stop stop-color="#0BBDEA" offset="0%"></stop>
            <stop stop-color="#27D0B7" offset="100%"></stop>
        </linearGradient>
        <circle id="path-2" cx="9.5" cy="9.5" r="9.5"></circle>
    </defs>
    <g id="Page-1" stroke="none" stroke-width="1" fill="none" fill-rule="evenodd">
        <g id="fingerprint_generic_error">
            <rect id="Rectangle" x="0" y="0" width="47" height="42"></rect>
            <path d="M28.8636,37.8278 C28.7602,37.8278 28.6913,37.8278 28.5879,37.7929 C25.1759,36.8852 22.3842,35.1048 20.5231,32.696 C18.8344,30.5316 17.9728,27.9832 18.1106,25.5046 C18.2485,22.7118 20.5921,20.5823 23.4871,20.5823 C26.3822,20.5823 28.7602,22.6419 28.8636,25.2951 C28.8636,25.33 28.8636,25.3649 28.8636,25.3998 C28.8636,27.285 30.449,28.821 32.448,28.821 C34.4125,28.821 35.9979,27.285 35.9979,25.3998 C35.9979,19.0113 30.3801,13.8097 23.4871,13.8097 C19.6271,13.8097 15.9738,15.4854 13.69914,18.2782 C10.97641,21.6645 10.45943,26.2028 12.21714,31.5091 C12.28607,31.7185 12.21714,31.928 12.18267,32.0328 C12.07928,32.2422 11.87249,32.3819 11.63124,32.4517 C11.52784,32.4866 11.45891,32.4866 11.35551,32.4866 C10.94194,32.4866 10.59729,32.2422 10.45943,31.928 C8.56387,26.2028 9.14977,21.1757 12.18267,17.4404 C14.80199,14.2286 19.0067,12.30856 23.4871,12.30856 C27.4161,12.30856 31.0694,13.705 33.7576,16.2883 C36.3425,18.732 37.8245,22.0834 37.8245,25.4348 C37.8245,28.1578 35.4119,30.392 32.4135,30.392 C29.5185,30.392 27.1404,28.3323 27.0025,25.6791 C27.0025,25.6442 27.0025,25.6093 27.0025,25.5744 C27.0025,23.6893 25.4172,22.1532 23.4527,22.1532 C21.5226,22.1532 20.0062,23.6194 19.9028,25.6093 C19.7994,27.8087 20.5576,30.0428 22.0396,31.928 C23.6939,34.0226 26.1409,35.5587 29.1049,36.3616 C29.3462,36.4314 29.5529,36.5711 29.6563,36.7805 C29.7252,36.8852 29.7597,37.0947 29.6908,37.3042 C29.6563,37.6183 29.2772,37.8278 28.8636,37.8278 Z M19.7305,37.8278 C19.5237,37.8278 19.2824,37.758 19.1445,37.6533 C16.5252,35.7332 14.38844,31.8931 13.80252,28.0879 C13.11322,23.4449 14.76753,19.7444 18.4208,17.7196 C20.0407,16.812 21.7984,16.3581 23.5561,16.3581 C26.1065,16.3581 28.519,17.3007 30.3456,18.9764 C32.2067,20.7219 33.2407,23.0609 33.2407,25.6093 C33.2407,26.0282 32.8271,26.3773 32.3101,26.3773 C31.7932,26.3773 31.3795,26.0282 31.3795,25.6093 C31.3795,23.4798 30.5524,21.5248 29.0015,20.0586 C27.5195,18.6622 25.5895,17.8942 23.5216,17.8942 C22.0741,17.8942 20.6955,18.2782 19.3858,18.9764 C16.3529,20.6521 14.9743,23.7591 15.5602,27.7388 C16.0428,31.0203 17.8349,34.5113 19.9717,36.222 C20.0062,36.2569 20.0062,36.2569 20.0407,36.2917 C20.1096,36.3267 20.1441,36.3616 20.213,36.3965 C20.3853,36.5361 20.5231,36.7107 20.5231,36.9201 C20.5576,37.1296 20.4887,37.3042 20.3164,37.4438 C20.2819,37.6881 20.0062,37.8278 19.7305,37.8278 Z M32.3101,34.2321 C29.6563,34.2321 27.5195,33.6037 25.9341,32.3469 C23.9007,30.7411 22.5221,27.8785 22.6255,25.3649 C22.6255,24.946 23.0391,24.6318 23.5561,24.6318 L23.5905,24.6318 C23.8662,24.6318 24.1075,24.7366 24.2798,24.946 C24.3832,25.0507 24.4866,25.2253 24.4866,25.4348 C24.4177,27.4944 25.555,29.9381 27.2093,31.2647 C28.4501,32.2422 30.1733,32.731 32.3101,32.731 C32.896,32.731 33.4819,32.696 34.1368,32.6262 C34.1712,32.6262 34.2057,32.6262 34.2746,32.6262 C34.7226,32.6262 35.1362,32.9055 35.1707,33.2895 C35.2052,33.499 35.1018,33.6735 35.0329,33.7783 C34.895,33.9877 34.6537,34.0924 34.378,34.1274 C33.6542,34.1972 32.9649,34.2321 32.3101,34.2321 Z M8.90852,16.8818 C8.73619,16.8818 8.5294,16.8469 8.39154,16.7422 C8.18476,16.6374 8.0469,16.4279 8.01243,16.2185 C7.97797,16.044 8.01243,15.8345 8.15029,15.6949 C11.73463,10.91216 17.3868,8.15429 23.6595,8.15429 C29.4151,8.15429 34.6882,10.49327 38.1347,14.5428 C38.2725,14.6824 38.3415,14.8919 38.307,15.0665 C38.2725,15.2759 38.1692,15.4505 37.9623,15.5902 C37.79,15.6949 37.6177,15.7647 37.4109,15.7647 C37.1007,15.7647 36.825,15.6599 36.6527,15.4505 C33.5509,11.81986 28.8292,9.72521 23.6939,9.72521 C18.0761,9.72521 12.97536,12.20383 9.73567,16.5327 C9.49442,16.7422 9.2187,16.8818 8.90852,16.8818 Z M33.6542,8.1892 C33.4475,8.1892 33.2752,8.1543 33.1028,8.04956 C30.4835,6.4437 27.1059,5.53604 23.625,5.53604 C20.1441,5.53604 16.732,6.40879 14.04376,8.04956 C13.87145,8.1543 13.69914,8.1892 13.52682,8.1892 C13.21662,8.1892 12.9409,8.04956 12.76858,7.8401 C12.63071,7.66555 12.59625,7.491 12.63071,7.31645 C12.66518,7.10699 12.80304,6.89753 13.00983,6.7928 C16.0083,5.01239 19.7649,4 23.625,4 C27.4851,4 31.2417,4.97748 34.2057,6.7928 C34.4125,6.93244 34.5503,7.10699 34.5848,7.31645 C34.6192,7.491 34.5848,7.70046 34.4469,7.8401 C34.2402,8.04956 33.9644,8.1892 33.6542,8.1892 Z" id="Shape" fill="url(#linearGradient-1)" fill-rule="nonzero"></path>
            <g id="Screenshot-2020-11-23-at-7.10.41-am-Clipped" transform="translate(28.000000, 23.000000)">
                <g id="path-5" fill="#E21343" fill-rule="nonzero">
                    <circle id="path-2" cx="9.5" cy="9.5" r="9.5"></circle>
                </g>
                <g id="Group-Clipped">
                    <mask id="mask-3" fill="white">
                        <use xlink:href="#path-2"></use>
                    </mask>
                    <g id="path-2"></g>
                    <g id="Group" stroke-linecap="square" mask="url(#mask-3)">
                        <g transform="translate(5.000000, 5.000000)" id="Line">
                            <g transform="translate(0.250000, 0.250000)">
                                <line x1="0.5" y1="0.5" x2="8" y2="8" id="Path" stroke="#FFFFFF" transform="translate(4.250000, 4.250000) scale(-1, 1) translate(-4.250000, -4.250000) "></line>
                                <line x1="0.5" y1="0.5" x2="8" y2="8" id="Path" stroke="#FFFFFF"></line>
                            </g>
                        </g>
                    </g>
                </g>
            </g>
        </g>
    </g>
</svg>