<?xml version="1.0" encoding="UTF-8"?>
<svg width="48px" height="48px" viewBox="0 0 48 48" version="1.1" xmlns="http://www.w3.org/2000/svg" xmlns:xlink="http://www.w3.org/1999/xlink">
    <title>Touch-ID</title>
    <defs>
        <linearGradient x1="50%" y1="0%" x2="50%" y2="99.6352838%" id="linearGradient-1">
            <stop stop-color="#DA5CE6" offset="0%"></stop>
            <stop stop-color="#CC473D" offset="100%"></stop>
        </linearGradient>
    </defs>
    <g id="Page-1" stroke="none" stroke-width="1" fill="none" fill-rule="evenodd" stroke-linecap="round">
        <g id="touchid" transform="translate(2.000000, 2.000000)" stroke="url(#linearGradient-1)" stroke-width="2.29041553">
            <path d="M44,22.081356 C44,11.1970338 36.1553292,2.151867 25.8316895,0.3318653 M21.7078053,0 C13.1919527,0.1112682 5.84314,5.0793222 2.2846669,12.270934 M0.8468733,15.9925239 C0.2953578,17.9266567 0,19.9693836 0,22.081356 C0,24.6431657 0.4345759,27.1030906 1.2337657,29.3909038 M39.9104016,18.3014459 C38.1742667,9.9706908 30.8150633,3.7138229 22,3.7138229 C19.5602313,3.7138229 17.2319859,4.1931185 15.1036157,5.0630236 M11.4292987,7.0868957 C6.7534217,10.4143037 2.3556406,17.4740524 4.1223709,26.0082079 M3.9495981,34.5315264 C4.2829844,33.038868 4.458891,31.4864721 4.458891,29.8928356 C4.458891,28.5348171 4.3311545,27.206746 4.0870841,25.9200679 M36.2543865,18.9130238 C35.3750387,14.9088039 32.863855,11.5192787 29.4565424,9.4829397 M25.819272,7.9362119 C24.6019038,7.6058217 23.3214591,7.4295538 22,7.4295538 C13.9385434,7.4295538 7.4034417,13.9893891 7.4034417,22.081356 C7.4034417,22.081356 7.3193117,22.7147192 7.7399618,25.4170689 M30.611418,15.1664442 C28.5909009,12.6619418 25.5027571,11.0608362 22.042065,11.0608362 C15.9553168,11.0608362 11.0210325,16.0137954 11.0210325,22.1235802 C11.0210325,22.1235802 11.1051625,24.1503425 11.4416826,25.3326205 M29.2629356,20.8699736 C28.6871324,17.3653049 25.6545672,14.6921186 22,14.6921186 C21.1326825,14.6921186 20.3003978,14.84268 19.5276709,15.1191851 M16.3903799,17.2963237 C15.2978682,18.5855545 14.6386233,20.2561765 14.6386233,22.081356 C14.6386233,22.081356 14.7227533,24.1503427 15.1434034,25.3326207 M25.5043383,21.3272699 C25.1759889,19.7095677 23.7506453,18.4922978 22.042065,18.4922978 C20.0905885,18.4922978 18.5086042,20.0802695 18.5086042,22.0391318 C18.5086042,22.0391318 18.5086042,22.7147192 18.6768642,23.5592035 M41.171669,32.7315731 C41.2127654,31.9304088 41.2335261,31.1247907 41.2335261,30.3150778 C41.2335261,29.9440066 41.229166,29.5737954 41.2204868,29.2044787 M40.9789982,25.088028 C40.7622666,22.785031 40.4037844,20.5234551 39.9124034,18.3121857 M36.8706967,38.3914759 C37.2992416,35.734758 37.5219885,33.0088048 37.5219885,30.2306293 C37.5219885,26.3429148 37.0857931,22.5574647 36.259848,18.9209007 M32.3140715,41.4136736 C33.3504915,37.6665824 33.9043977,33.7179671 33.9043977,29.6394903 C33.9043977,25.949198 33.4509138,22.3652233 32.5968322,18.9406526 M27.7657907,43.3444013 C29.2898871,38.9750771 30.1185468,34.2777493 30.1185468,29.3861451 C30.1185468,26.4796334 29.8259849,23.6417119 29.2688086,20.9004337 M23.6546559,44 C24.93062,40.8424946 25.7959672,37.4737771 26.1841972,33.9605996 M26.416826,29.7239388 C26.416826,26.8344443 26.0955525,24.0202713 25.4869062,21.3154486 M19.751478,43.9819816 C19.751478,43.9819816 20.4297869,42.2834623 20.7236603,41.4122982 M21.7720706,37.6838069 C22.3892157,34.9612008 22.7151052,32.1274263 22.7151052,29.2172482 C22.7151052,26.7923881 22.4888469,24.4205734 22.0563658,22.1219156 M15.9880391,43.1650679 C17.983648,38.8478233 19.0975143,34.0364341 19.0975143,28.9639029 C19.0975143,27.118236 18.9500489,25.3071419 18.6662996,23.5418444 M12.5353729,41.8845118 C14.3862333,38.2532294 15.4799235,34.0037871 15.4799235,29.6394903 C15.4799235,28.1623201 15.3539778,26.7146773 15.1122772,25.3067916 M11.6720869,31.8093806 C11.742314,31.0392362 11.7782027,30.2591218 11.7782027,29.4705935 C11.7782027,28.0189559 11.6565732,26.5958339 11.4229859,25.2109357 M9.4672229,40.0756423 C10.0833834,38.735634 10.586386,37.3324294 10.963931,35.8783747 M6.6027279,37.6281602 C7.6070257,35.1638992 8.1606119,32.466588 8.1606119,29.6394903 C8.1606119,28.1823768 8.0135533,26.7597407 7.7335214,25.3857205" id="Touch-ID"></path>
        </g>
    </g>
</svg>